<svg id="Layer_1" data-name="Layer 1" xmlns="http://www.w3.org/2000/svg" viewBox="0 0 365.33 707.16"><defs><style>.cls-1{fill:#fff;}</style></defs><title>djlit-mtw</title><path class="cls-1" d="M455,97.14c37.31,42.12,44.21,89.79,22.32,141.48-21.06,49.74-42.83,99.18-63.51,149.07-5.55,13.38-8.44,27.89-12.25,42-15.62,57.82,4,104,47.6,141.85,11.29,9.81,23.48,18.59,34.71,28.71h0c-30.55-8.38-57-24.26-80.93-44.57-70-59.5-89.27-135.55-69-222.48,8.19-35.06,18.33-70.56,33.92-102.79C400.85,162.3,406.17,93.47,382.7,21,406.67,46.49,431.83,70.94,455,97.14Z" transform="translate(-326.38 -20.97)"/><path class="cls-1" d="M552,205.36c38.47,48.81,34.58,99,11.3,149.56-10.56,23-24.19,44.58-37.14,66.38-15.58,26.24-27.63,53.56-30.16,84.82-18-30.45-23.07-62.85-11.84-95.86,9.52-28,20.92-55.67,34.75-81.75C545.79,277.73,547.47,275.58,552,205.36Z" transform="translate(-326.38 -20.97)"/><path class="cls-1" d="M650.41,277.88s18.86,18.24,23.94,27.63c26.93,49.85,23,85.24-14.94,130.59C646,452.2,630.84,466.94,616.17,482c-23.38,24-46.24,48.3-55.23,82.3h0C548.21,524.68,563,492,584.46,461c12.9-18.61,27.42-36.22,39-55.6,18.86-31.57,29.33-65.9,26.89-103.34" transform="translate(-326.38 -20.97)"/><path class="cls-1" d="M497.44,640.4c21.67-3,21.67-3,84.92-13.22,14.54-2.36,12.14-22.42-2.07-20.34-44.28,6.49-44.28,6.49-86.78,13.69C477.16,623.3,482.26,642.47,497.44,640.4Z" transform="translate(-326.38 -20.97)"/><path class="cls-1" d="M493.63,672.52c-12.08,2.75-16.72-16.92-1.8-20.21,31-6.83,62.78-9.81,94.18-14.64,16.49-2.54,19.2,16.69,3.48,19.27C558.67,662,527.42,664.84,493.63,672.52Z" transform="translate(-326.38 -20.97)"/><path class="cls-1" d="M515.66,700c-11.24,1.57-15.26-18.06-1.21-20.26,20.15-3.14,40.44-5.64,60.58-8.92,12.24-2,15.83,16.87,3,19.27C558.5,693.77,538.81,696.8,515.66,700Z" transform="translate(-326.38 -20.97)"/><path class="cls-1" d="M538,707.78c8.24-1.45,16.82-2.89,25.15-3.86,13.16-1.53,17.17,16.14,3.88,18.86-8.32,1.71-16.7,4-28.36,5.29C527.31,729.38,523.76,710.26,538,707.78Z" transform="translate(-326.38 -20.97)"/><path class="cls-1" d="M509,576" transform="translate(-326.38 -20.97)"/></svg>