<svg id="Layer_1" data-name="Layer 1" xmlns="http://www.w3.org/2000/svg" viewBox="0 0 1730.32 1763.22"><defs><style>.cls-1{fill:#fff;stroke:#000;stroke-miterlimit:10;stroke-width:6px;}</style></defs><title>hallows</title><path class="cls-1" d="M1821.11,1356.76l-149.33,54.81,73.47,214.69L1736,1630c-18.61-41.64-36.7-83.51-55.92-124.86-53.4-114.85-22.26-97.75-147.82-89.65-59.58,3.84-119.61.66-180.2,6.56,65.29,47.06,148,60,200.72,124.07-91.82-64.16-200.66-77.34-299.12-106.23-2.91,28.73-.71,57.12-10.17,80.86-5.34,13.42-28.84,22.51-45.94,27.65-24.66,7.43-62.74-15.63-65.54-37.85-3-24.19,11.06-36.14,34-39.91,2.39,9.26,4.45,17.2,6.5,25.14,4.18-1.77,12-3.71,12-5.29-.47-10.64.52-23.26-4.81-31.42-19.46-29.78-95.73-48.8-130.64-33.94-16.82,7.16-33.13,15.51-53.52,16.67l52.69-35.71H932.41c0,66.38,1,133.65-.26,200.88-1.23,67.45,9.58,131.66,47.73,190l-12.63,6.54c-19.69-29-39.37-58-59.76-88-1.83,37.08-3.8,76.9-5.76,116.72l-9.05.53c-5.4-66.66-10.81-133.32-16.37-201.92-28.75,8.29-62.53,59-92.09,1.26-13.82-27,5.44-53.58,32.91-60-3.83,15.44-8.78,33.09-11.87,51.06-.35,2,13.39,9.38,14.4,8.33,13.13-13.74,29.22-26.72,36.7-43.41,26.34-58.71,41.33-120.34,34.85-193.54-48,2.39-97.16-.62-143.85,8.82-40.64,8.21-76.53,3.57-113.51-9.69-11.77-4.22-24.11-12.94-35.31-11.7-94,10.48-182.43-25.45-274.33-31.87-25.68-1.79-41.81,5.88-53,30.21-13,28.29-30.09,54.69-50.18,90.41,1.41-17.3,2-25,2.66-32.69l-5.59-3.84-62.73,91.54-6.65-3.89c32.42-55,64.84-110.08,100.52-170.63l-75.67,12-4.68-4.58,24.42-16H99.94l-1.23-9.7c11-2.61,21.82-6.21,33-7.66,42.17-5.5,84.48-10,126.63-15.67,7.94-1.08,18.51-3.93,22.51-9.68,29.78-42.85,58.21-86.64,89.44-133.7-39.57-9.2-76.13-25-73-70,1.27-18.31,22.45-35.24,34.57-52.8l11.84,7.85c-2.28,4.85-5.79,9.51-6.59,14.59-1.86,11.82-7.62,29.68-2.29,34.45,8.44,7.54,28.31,12.69,36.93,7.72,29.54-17,62.38-34.1,82.8-60,38.15-48.32,66.43-104.28,102.43-154.46,90.29-125.85,131.4-214.83,167.44-359q4.73,46.9,9.46,93.83l6.82,4.63c24.23-48,52.39-94.45,71.74-144.33,27.32-70.41,48.11-143.36,72.47-217.56L762.28,78.57l5.64-2.4c51.86,49.85,103.72,99.7,156.52,150.47L1045.76,81.19l6.27,3.93c-18.23,29.58-36.82,58.94-54.61,88.78-47.28,79.3-47.79,79.93,12.33,150.14,101.46,118.47,186.72,247.55,257.15,386.59,7.24,14.29,15.43,28.11,23.18,42.15L1301,750.2c-13.73-95.13-27.45-190.26-40.25-279,33.84,52.85,46.4,120.48,54.76,189.15,6.19,50.88,10.27,102,15.51,153,.62,6.1.84,13.43,4.25,17.88,66.46,86.68,103.7,193.56,195.12,263.9,49.14,37.81,85.44,92.33,127.54,139.32l-7.73,7.06q-47.94-52.71-95.89-105.4l-11.24,9.14c34.23,69.16,67.94,138.58,103.48,207.06,3.71,7.16,18.51,12.69,27.77,12.17,48.08-2.75,96-7.71,144-11.9ZM1146.43,600.84l-10,6.94c-18.37-24.46-39.21-47.49-54.57-73.72-26.53-45.31-48.63-93.2-74.7-138.81-11.65-20.41-28.39-37.91-43.63-57.77V555.21l72.93,4-55.83,21.44c101.26,12.42,176.16,49.86,225.64,128.55,46.15,73.39,64,194,37,248.37-1.25-19.56-2.45-38.39-4-63.4-69.78,138.1-69.78,138.1-106.24,148.48,61.16-80.91,80.51-135.72,66.63-185.29l-27.92,41.32c35.25-65.9,36.48-131.08-11.3-186.79-50.65-59.05-123.47-73.26-204.54-78.18,39,113,30.17,221.5,19.15,330.56L1013,906.46c-47.56,128-35.25,263-59.44,393.32,28.93-1.39,55.58,5.06,72.49-5,49-29,98.25-60.18,139.8-98.7,74.67-69.22,90.07-166.84,113.62-260.65,16.23-64.66,8.52-121.62-23.73-179.31-39.1-70-72-143.52-135.08-197.54ZM909.81,1306.06c0-79.41-5.9-152.18,1.93-223.43,5.87-53.43-2.19-98.94-21.61-148.05-21.5-54.37-19.9-113.16,5.09-169.82l15.45,108.63,6.73-1.12V629.78c-27.26,10.16-50.9,17.2-73,27.54C773.73,690.4,719.65,743.91,669,801.78c-44,50.35-55.77,110-54.54,174.23,1.45,75.71,34.26,137,75.31,199.67C741.05,1254,814.91,1281.77,909.81,1306.06Zm429.87-374.64c-38.34,193.58-122.36,344.09-309.26,425.43,78.22,11.29,153.76,17.19,229.4,21.34,114.16,6.26,224.7-48.94,348.3-12.86Zm-494,412.64c-167.2-70-250.17-196.45-268.29-371.46L565,972l-57.61,200.69c-1.93-34.4-3.72-66.42-6.12-109.42-59.85,82.15-113.53,155.83-163.89,225,61.05,13,116.16,26.84,172.06,35.73,34.8,5.53,70.8,3.75,106.28,4.79,52.21,1.52,104.49,1.64,156.64,4.34C796.89,1334.36,821.22,1340.26,845.65,1344.06Zm71-961.1L781.55,626.19l130.88-60.27C874.84,504.44,902.06,444.06,916.6,383Z" transform="translate(-95.39 -72.63)"/><path class="cls-1" d="M624.16,602.09c43.19,15,42.84,35.45,33.36,56.26-2.16,4.75-16.71,3.86-25.55,5.57C629.67,645.69,627.36,627.45,624.16,602.09Z" transform="translate(-95.39 -72.63)"/><path class="cls-1" d="M1352.69,1606c-16.27,10.26-26.33,21.67-35,20.72-9-1-16.77-14-25.07-21.67,8.5-7.49,16.63-20.35,25.59-21S1336.77,1595.19,1352.69,1606Z" transform="translate(-95.39 -72.63)"/></svg>