<?xml version="1.0"?>
<svg xmlns="http://www.w3.org/2000/svg" xmlns:xlink="http://www.w3.org/1999/xlink" version="1.1" id="Capa_1" x="0px" y="0px" viewBox="0 0 512 512" style="enable-background:new 0 0 512 512;" xml:space="preserve" width="512px" height="512px" class="hovered-paths"><g><g>
	<g>
		<path d="M512,64c0-23.875-20.75-55.698-23.125-59.25C486.167,0.666,481-1,476.458,0.604c-4.604,1.625-7.521,6.167-7.083,11.031    c5.167,56.771-28.083,73.635-63.271,91.49c-30.354,15.406-64.771,32.854-64.771,78.208c0,22.417,5.438,34.594,10.708,46.354    c5.458,12.229,10.625,23.771,10.625,49.646c0,33.223-16.763,50.956-26.438,58.477c-19.573-22.557-48.092-37.143-80.229-37.143    c-32.132,0-60.648,14.583-80.221,37.134c-9.615-7.492-26.445-25.241-26.445-58.467c0-25.875,5.167-37.417,10.625-49.646    c5.271-11.76,10.708-23.938,10.708-46.354c0-45.354-34.417-62.802-64.771-78.208C70.708,85.27,37.458,68.406,42.625,11.635    c0.438-4.865-2.479-9.406-7.083-11.031C30.938-0.98,25.833,0.687,23.125,4.75C20.75,8.302,0,40.125,0,64    c0,20.906,0.375,24.24,9,41.802c-4.063,7.26-9,20.781-9,43.531c0,28.594,20.729,49.333,31.083,57.896    c-2,18.427,3.167,48.167,33.604,66.146c3.105,14.852,19.409,47.967,97.827,81.676c-8.135,15.052-13.181,32.007-13.181,50.283    C149.333,464.145,197.188,512,256,512s106.667-47.854,106.667-106.667c0-18.279-5.048-35.236-13.185-50.289    c78.405-33.704,94.725-66.819,97.831-81.669c30.417-17.979,35.604-47.719,33.604-66.146C491.271,198.666,512,177.927,512,149.333    c0-22.75-4.938-36.271-9-43.531C511.625,88.239,512,84.906,512,64z M256,469.333c-35.292,0-64-28.708-64-64    c0-5.896,4.771-10.667,10.667-10.667c5.896,0,10.667,4.771,10.667,10.667C213.333,428.864,232.479,448,256,448    c5.896,0,10.667,4.771,10.667,10.667C266.667,464.562,261.896,469.333,256,469.333z" data-original="#000000" class="hovered-path active-path" data-old_color="#000000" fill="#FEFBFB"/>
	</g>
</g></g> </svg>
